<svg xmlns="http://www.w3.org/2000/svg" width="700" height="160"
 viewBox="0 0 700 160" fill="none" role="img" aria-labelledby="title desc">
  <title id="title">Agent Rack monochrome horizontal logo</title>
  <desc id="desc">Single-color Agent Rack wordmark with larger clean connector mark.</desc>

  <g transform="translate(12 -8) scale(0.36)">
  <circle cx="116" cy="104" r="28" fill="#111827"/>
  <path d="M116 140V226" stroke="#111827" stroke-width="28" stroke-linecap="round"/>
  <circle cx="208" cy="104" r="28" fill="#111827"/>
  <path d="M208 140V226" stroke="#111827" stroke-width="28" stroke-linecap="round"/>
  <circle cx="304" cy="104" r="28" fill="#111827"/>
  <path d="M304 140V226" stroke="#111827" stroke-width="28" stroke-linecap="round"/>
  <circle cx="396" cy="104" r="28" fill="#111827"/>
  <path d="M396 140V226" stroke="#111827" stroke-width="28" stroke-linecap="round"/>
  <path d="M116 226C116 282 176 288 220 330" stroke="#111827" stroke-width="24" stroke-linecap="round"/>
  <path d="M208 226C208 278 230 300 244 330" stroke="#111827" stroke-width="24" stroke-linecap="round"/>
  <path d="M304 226C304 278 282 300 268 330" stroke="#111827" stroke-width="24" stroke-linecap="round"/>
  <path d="M396 226C396 282 336 288 292 330" stroke="#111827" stroke-width="24" stroke-linecap="round"/>
  <rect x="214" y="312" width="84" height="84" rx="24"
        transform="rotate(45 256 354)" fill="#111827"/>
  </g>
  <text x="194" y="111" fill="#111827"
        font-family="Inter, Arial, Helvetica, sans-serif"
        font-size="72" font-weight="800" letter-spacing="-3">Agent Rack</text>
</svg>
